<svg version="1.1" id="Capa_1" xmlns="http://www.w3.org/2000/svg" x="0" y="0" viewBox="0 0 512 512" xml:space="preserve"><style>.st0{fill:#fff}</style><path class="st0" d="M263.1 54.5v9.3c0 4.1 3.4 7.5 7.5 7.5s7.5-3.4 7.5-7.5v-9.3c0-4.1-3.4-7.5-7.5-7.5s-7.5 3.4-7.5 7.5zm86.4 257.3c4.1 0 7.5-3.4 7.5-7.5V295c0-4.1-3.4-7.5-7.5-7.5s-7.5 3.4-7.5 7.5v9.3c0 4.1 3.3 7.5 7.5 7.5zM93.3 269.6v-9.3c0-4.1-3.4-7.5-7.5-7.5s-7.5 3.4-7.5 7.5v9.3c0 4.1 3.4 7.5 7.5 7.5s7.5-3.3 7.5-7.5z"/><path class="st0" d="M332.3 86.4c3.5-14.5 4.4-28.1-.5-42.4-1.3-3.9-5.6-6-9.5-4.7-3.9 1.3-6 5.6-4.7 9.5 1.7 5.1 2.6 10.4 2.6 15.8 0 27.7-23.2 79.1-49.6 79.1-26 0-49.6-50.7-49.6-79.1 0-27.3 22.2-49.6 49.6-49.6 11.9 0 23.5 4.3 32.5 12.1 3.1 2.7 7.9 2.4 10.6-.8 2.7-3.1 2.4-7.9-.8-10.6C301.2 5.6 286.2 0 270.6 0 235 0 206 29 206 64.6c0 6.7 1.1 14.6 3.2 22.8-61.4 18.7-110 63.2-135.1 119.5-23.7 4.4-43.6 21.9-50.4 45.7-1.1 4 1.2 8.1 5.1 9.3 4 1.1 8.1-1.2 9.3-5.1 6.1-21.1 25.7-35.9 47.7-35.9 27.3 0 49.6 22.2 49.6 49.6 0 27.8-23.3 79.1-49.6 79.1-20.7 0-42.6-35-48.3-66.2-.7-4.1-4.7-6.8-8.7-6-4.1.7-6.8 4.7-6 8.7 4.5 24.5 19.9 58.1 42 72 13.1 43.2 40 82 76.1 109.5 38.1 29.1 83.6 44.5 131.6 44.5 58 0 112.4-22.6 153.4-63.6S489.4 353 489.4 295c0-100.4-67.7-182.8-157.1-208.6zm-118.7 15.4c10.5 28.5 31.1 56.9 57 56.9 27.5 0 47.9-31.7 57.4-57.9 40.3 11.5 76.6 35.8 102.8 68.9l5.7 7.5c-27.3 16.3-49 22.1-62.9 16.8-26.7-10.2-51.5-3.3-80.3 4.7-23.8 6.6-50.8 14.1-83.4 12.4-27.3-1.4-49.2-12.4-65-32.5-8.3-10.6-12.8-21.2-14.7-26.7 23.2-23.1 51.8-40.5 83.4-50.1zM82.7 364.4c30.8 2.7 53.6-34.7 62.7-64.5 2.9 4.3 5.2 8.9 6.8 13.7 5.5 16.7 5.6 32.4 5.8 47.5.2 17.5.4 35.7 9.3 53.5 9.8 19.7 28.8 36.4 59.6 52.5 18.1 9.5 21.2 19.8 20.3 28.2-35.3-4.4-68.5-17.9-97.2-39.8-30.6-23.2-54.1-55.3-67.3-91.1zm239.8 126.3c-12.2-17.4-26.7-41.7-32.5-65.6-1-4-5-6.5-9.1-5.5-4 1-6.5 5-5.5 9.1 5.7 23.8 19.1 47.5 31.2 65.5-11.1 1.9-22.5 2.9-34.2 2.9-3.5 0-6.9-.1-10.4-.3 1.3-13.7-3.9-30-28.3-42.8-60.2-31.5-60.5-58.6-60.8-92.9-.2-15.5-.3-33.2-6.5-52.1-3.4-10.2-9-19.5-16.8-27.5h-.1c.5-3.8.8-7.5.8-11 0-33.8-26.2-61.7-59.3-64.4 7.5-15.2 16.9-29.3 27.8-42.1 2.9 6.5 7.3 14.8 13.8 23.3 12.8 16.5 36.4 36.7 76.4 38.8 32.3 1.7 57.9-4.5 88.2-12.9 27.3-7.6 48.9-13.6 71-5.1 18.7 7.2 44.4 1 76.6-18.3 9.7 15.7 17 32.6 22 50.1-28.2 9.7-46.4 23.7-54.1 41.6-.6 1.3-1.2 2.6-1.8 3.8-8.4-25.9-32.8-44.8-61.5-44.8-35.6 0-64.6 29-64.6 64.6 0 13.3 4.3 31 11.9 47.6-2.2 2.1-4.4 4.3-6.6 6.6-9.6 10.2-15.4 22.4-17.2 36.5-.5 4.1 2.4 7.9 6.5 8.4.3 0 .6.1.9.1 3.7 0 7-2.8 7.4-6.6 1.4-11 5.7-20.2 13.2-28 1-1.1 2-2.1 3-3.1 11.3 18.5 27 32.8 45.4 32.8 36.1 0 63.5-56.9 64.5-92.1 5-5.4 9.1-11.9 12.5-19.7 5.8-13.6 20.6-24.6 43.8-32.8 2.7 13.2 4 26.7 4 40.5.3 93.8-64.4 173.1-151.6 195.4zM299.9 305c0-27.3 22.2-49.6 49.6-49.6 27.3 0 49.6 22.2 49.6 49.6 0 27.8-23.3 79.1-49.6 79.1-11.2 0-23.6-10.1-33.9-27.8-9.4-16-15.7-36.6-15.7-51.3z"/></svg>